<svg width="96" height="96" xmlns="http://www.w3.org/2000/svg" xmlns:xlink="http://www.w3.org/1999/xlink" overflow="hidden"><defs><clipPath id="clip0"><rect x="491" y="54" width="96" height="96"/></clipPath></defs><g clip-path="url(#clip0)" transform="translate(-491 -54)"><path d="M574 103C573.997 101.014 572.82 99.2183 571 98.424L571 93 565 93 565 75C564.997 72.2399 562.76 70.0033 560 70L543 70C540.24 70.0033 538.003 72.2399 538 75L538 128C538 129.657 536.657 131 535 131L518 131C516.343 131 515 129.657 515 128L515 111 521 111 521 105.576C522.82 104.782 523.997 102.986 524 101L524 77 521 77 521 69 507 69 507 77 504 77 504 101C504.003 102.986 505.18 104.782 507 105.576L507 111 513 111 513 128C513.003 130.76 515.24 132.997 518 133L535 133C537.76 132.997 539.997 130.76 540 128L540 75C540 73.3431 541.343 72 543 72L560 72C561.657 72 563 73.3431 563 75L563 93 557 93 557 98.424C555.18 99.2183 554.003 101.014 554 103L554 127 557 127 557 135 571 135 571 127 574 127ZM509 71 519 71 519 77 509 77ZM509 106 509 104C507.343 104 506 102.657 506 101L506 79 522 79 522 101C522 102.657 520.657 104 519 104L519 109 509 109ZM569 133 559 133 559 127 569 127ZM572 125 556 125 556 103C556 101.343 557.343 100 559 100L559 95 569 95 569 100C570.657 100 572 101.343 572 103Z" stroke="#FFFFFF" fill="#FFFFFF"/></g></svg>