<svg width="96" height="96" xmlns="http://www.w3.org/2000/svg" xmlns:xlink="http://www.w3.org/1999/xlink" overflow="hidden"><defs><clipPath id="clip0"><rect x="0" y="0" width="96" height="96"/></clipPath></defs><g clip-path="url(#clip0)"><path d="M84 77 56 77 56 73 49 73 49 64 76 64C78.2091 64 80 62.2091 80 60L80 50C79.9963 48.8469 79.492 47.7522 78.618 47 79.492 46.2478 79.9963 45.1531 80 44L80 34C79.9963 32.8469 79.492 31.7522 78.618 31 79.492 30.2478 79.9963 29.1531 80 28L80 18C80 15.7909 78.2091 14 76 14L20 14C17.7909 14 16 15.7909 16 18L16 28C16.0037 29.1531 16.508 30.2478 17.382 31 16.508 31.7522 16.0037 32.8469 16 34L16 44C16.0037 45.1531 16.508 46.2478 17.382 47 16.508 47.7522 16.0037 48.8469 16 50L16 60C16 62.2091 17.7909 64 20 64L47 64 47 73 40 73 40 77 12 77 12 79 40 79 40 83 56 83 56 79 84 79ZM18 28 18 18C18 16.8954 18.8954 16 20 16L76 16C77.1046 16 78 16.8954 78 18L78 28C78 29.1046 77.1046 30 76 30L20 30C18.8954 30 18 29.1046 18 28ZM18 44 18 34C18 32.8954 18.8954 32 20 32L76 32C77.1046 32 78 32.8954 78 34L78 44C78 45.1046 77.1046 46 76 46L20 46C18.8954 46 18 45.1046 18 44ZM18 60 18 50C18 48.8954 18.8954 48 20 48L76 48C77.1046 48 78 48.8954 78 50L78 60C78 61.1046 77.1046 62 76 62L20 62C18.8954 62 18 61.1046 18 60ZM54 81 42 81 42 75 54 75Z" stroke="#FFFFFF" fill="#FFFFFF"/><path d="M28 23C28 24.1046 27.1046 25 26 25 24.8954 25 24 24.1046 24 23 24 21.8954 24.8954 21 26 21 27.1046 21 28 21.8954 28 23Z" stroke="#FFFFFF" fill="#FFFFFF"/><path d="M38 23C38 24.1046 37.1046 25 36 25 34.8954 25 34 24.1046 34 23 34 21.8954 34.8954 21 36 21 37.1046 21 38 21.8954 38 23Z" stroke="#FFFFFF" fill="#FFFFFF"/><path d="M48 23C48 24.1046 47.1046 25 46 25 44.8954 25 44 24.1046 44 23 44 21.8954 44.8954 21 46 21 47.1046 21 48 21.8954 48 23Z" stroke="#FFFFFF" fill="#FFFFFF"/><path d="M28 39C28 40.1046 27.1046 41 26 41 24.8954 41 24 40.1046 24 39 24 37.8954 24.8954 37 26 37 27.1046 37 28 37.8954 28 39Z" stroke="#FFFFFF" fill="#FFFFFF"/><path d="M38 39C38 40.1046 37.1046 41 36 41 34.8954 41 34 40.1046 34 39 34 37.8954 34.8954 37 36 37 37.1046 37 38 37.8954 38 39Z" stroke="#FFFFFF" fill="#FFFFFF"/><path d="M48 39C48 40.1046 47.1046 41 46 41 44.8954 41 44 40.1046 44 39 44 37.8954 44.8954 37 46 37 47.1046 37 48 37.8954 48 39Z" stroke="#FFFFFF" fill="#FFFFFF"/><path d="M28 55C28 56.1046 27.1046 57 26 57 24.8954 57 24 56.1046 24 55 24 53.8954 24.8954 53 26 53 27.1046 53 28 53.8954 28 55Z" stroke="#FFFFFF" fill="#FFFFFF"/><path d="M38 55C38 56.1046 37.1046 57 36 57 34.8954 57 34 56.1046 34 55 34 53.8954 34.8954 53 36 53 37.1046 53 38 53.8954 38 55Z" stroke="#FFFFFF" fill="#FFFFFF"/><path d="M48 55C48 56.1046 47.1046 57 46 57 44.8954 57 44 56.1046 44 55 44 53.8954 44.8954 53 46 53 47.1046 53 48 53.8954 48 55Z" stroke="#FFFFFF" fill="#FFFFFF"/></g></svg>