<svg width="96" height="96" xmlns="http://www.w3.org/2000/svg" xmlns:xlink="http://www.w3.org/1999/xlink" overflow="hidden"><defs><clipPath id="clip0"><rect x="0" y="0" width="96" height="96"/></clipPath></defs><g clip-path="url(#clip0)"><path d="M19 49 47 49 47 65 49 65 49 49 77 49 77 65 79 65 79 47 49 47 49 31 47 31 47 47 17 47 17 65 19 65 19 49Z" stroke="#FFFFFF" fill="#FFFFFF"/><path d="M58 14 38 14 38 28 58 28ZM56 26 40 26 40 16 56 16Z" stroke="#FFFFFF" fill="#FFFFFF"/><path d="M38 68 38 82 58 82 58 68ZM56 80 40 80 40 70 56 70Z" stroke="#FFFFFF" fill="#FFFFFF"/><path d="M68 82 88 82 88 68 68 68ZM70 70 86 70 86 80 70 80Z" stroke="#FFFFFF" fill="#FFFFFF"/><path d="M28 68 8 68 8 82 28 82ZM26 80 10 80 10 70 26 70Z" stroke="#FFFFFF" fill="#FFFFFF"/></g></svg>