<svg width="96" height="96" xmlns="http://www.w3.org/2000/svg" xmlns:xlink="http://www.w3.org/1999/xlink" overflow="hidden"><defs><clipPath id="clip0"><rect x="317" y="150" width="96" height="96"/></clipPath></defs><g clip-path="url(#clip0)" transform="translate(-317 -150)"><path d="M346 226 346 225 350 225C357.1 225 357.6 233 371 233L389 233C392.31 232.99 394.99 230.31 395 227 395.023 225.514 394.453 224.081 393.416 223.017 393.412 223.013 393.412 223.007 393.416 223.003 393.418 223.001 393.42 223 393.423 223L394 223C397.31 222.99 399.99 220.31 400 217 400.015 215.435 399.407 213.929 398.311 212.812 398.307 212.809 398.306 212.802 398.309 212.798 398.31 212.797 398.31 212.797 398.311 212.796 401.531 212.089 403.568 208.905 402.86 205.685 402.601 204.507 401.991 203.435 401.111 202.61 401.107 202.607 401.106 202.602 401.108 202.598 401.109 202.596 401.11 202.596 401.111 202.595 403.468 201.75 405.03 199.504 405 197 404.99 193.69 402.31 191.01 399 191L380 191C378.393 190.972 377.082 189.705 377 188.1 377.1 186.3 379.99 182.712 380 169.068 380.016 165.951 377.659 163.333 374.557 163.025 374.37 163.008 374.184 163 374 163 370.686 163 368 165.686 368 169 368 181.36 356.3 189.356 351.761 192.02 350.665 192.663 349.417 193.001 348.146 193L346 193 346 192C345.993 189.794 344.206 188.007 342 188L325 188 325 230 342 230C344.206 229.993 345.993 228.206 346 226ZM348.146 195C349.776 195 351.376 194.566 352.781 193.741 357.958 190.7 370 182.2 370 169 370 166.791 371.791 165 374 165 376.209 164.996 378.003 166.784 378.007 168.993 378.008 169.076 378.005 169.159 378 169.242 377.975 179 376.447 183.305 375.626 185.615 375.305 186.372 375.094 187.172 375 187.989 374.996 188.06 374.996 188.132 375 188.203 375.149 190.867 377.332 192.962 380 193L398.994 193C401.207 193.014 402.996 194.81 403 197.024 403.02 198.678 401.987 200.161 400.429 200.716 399.389 201.087 398.846 202.231 399.217 203.271 399.324 203.573 399.503 203.845 399.737 204.063 400.625 204.89 401.089 206.074 401 207.284 400.807 209.045 399.513 210.487 397.783 210.869 396.717 211.158 396.087 212.256 396.375 213.322 396.466 213.655 396.641 213.96 396.883 214.205 397.61 214.95 398.012 215.953 398 216.994 397.988 219.199 396.205 220.985 394 221L393.4 221C392.295 221.001 391.401 221.897 391.401 223.001 391.402 223.524 391.607 224.026 391.973 224.4 392.648 225.093 393.018 226.027 393 226.994 392.989 229.199 391.205 230.985 389 231L371 231C363.933 231 360.992 228.7 358.147 226.486 355.95 224.772 353.679 223 350 223L346 223 346 195ZM327 190 342 190C343.101 190.009 343.991 190.899 344 192L344 225.994C343.995 227.098 343.104 227.992 342 228L327 228Z" stroke="#FFFFFF" stroke-width="3" fill="#FFFFFF"/></g></svg>