<svg width="96" height="96" xmlns="http://www.w3.org/2000/svg" xmlns:xlink="http://www.w3.org/1999/xlink" overflow="hidden"><defs><clipPath id="clip0"><rect x="428" y="115" width="96" height="96"/></clipPath></defs><g clip-path="url(#clip0)" transform="translate(-428 -115)"><path d="M451 129 501 129 501 197 451 197 451 129ZM445 203 507 203 507 123 445 123 445 203Z" stroke="#FFFFFF" fill="#FFFFFF"/><path d="M458 135 466 135 466 143 458 143Z" stroke="#FFFFFF" fill="#FFFFFF"/><path d="M474 137 494 137 494 141 474 141Z" stroke="#FFFFFF" fill="#FFFFFF"/><path d="M458 151 466 151 466 159 458 159Z" stroke="#FFFFFF" fill="#FFFFFF"/><path d="M474 153 494 153 494 157 474 157Z" stroke="#FFFFFF" fill="#FFFFFF"/><path d="M458 167 466 167 466 175 458 175Z" stroke="#FFFFFF" fill="#FFFFFF"/><path d="M474 169 494 169 494 173 474 173Z" stroke="#FFFFFF" fill="#FFFFFF"/><path d="M458 183 466 183 466 191 458 191Z" stroke="#FFFFFF" fill="#FFFFFF"/><path d="M474 185 494 185 494 189 474 189Z" stroke="#FFFFFF" fill="#FFFFFF"/></g></svg>