<svg width="96" height="96" xmlns="http://www.w3.org/2000/svg" xmlns:xlink="http://www.w3.org/1999/xlink" overflow="hidden"><defs><clipPath id="clip0"><rect x="275" y="102" width="96" height="96"/></clipPath></defs><g clip-path="url(#clip0)" transform="translate(-275 -102)"><path d="M353.547 124.841C342.941 123.996 333.05 119.157 325.875 111.3 324.522 109.732 322.155 109.558 320.587 110.911 320.448 111.031 320.318 111.161 320.198 111.3 313.023 119.157 303.132 123.996 292.526 124.841 290.555 125.026 289.053 126.688 289.068 128.667L289.068 138.32C289.068 159.306 302.415 178.503 320.947 190.382 322.22 191.2 323.853 191.2 325.126 190.382 343.658 178.5 357.005 159.306 357.005 138.32L357.005 128.667C357.02 126.688 355.518 125.026 353.547 124.841ZM350.505 138.32C350.505 155.02 340.556 171.867 323.891 183.396L323.037 183.987 322.184 183.396C305.518 171.866 295.567 155.015 295.567 138.32L295.567 131.069 296.831 130.869C306.248 129.38 315.013 125.135 322.02 118.669L323.036 117.733 324.053 118.669C331.06 125.135 339.824 129.38 349.241 130.869L350.505 131.069Z" stroke="#FFFFFF" fill="#FFFFFF"/><path d="M323.036 121.788C316.093 127.86 307.639 131.945 298.567 133.612L298.567 138.32C298.567 153.747 307.694 169.383 323.037 180.33 338.378 169.385 347.505 153.748 347.505 138.32L347.505 133.612C338.433 131.945 329.979 127.86 323.036 121.788ZM320.468 160.833 310.356 150.72 313.792 147.284 320.468 153.96 334.14 140.288 337.576 143.725Z" stroke="#FFFFFF" fill="#FFFFFF"/></g></svg>