<svg width="96" height="96" xmlns="http://www.w3.org/2000/svg" xmlns:xlink="http://www.w3.org/1999/xlink" overflow="hidden"><defs><clipPath id="clip0"><rect x="379" y="108" width="96" height="96"/></clipPath></defs><g clip-path="url(#clip0)" transform="translate(-379 -108)"><path d="M395 146C395 146.552 395.448 147 396 147L424 147C428.971 147 433 142.971 433 138 433 133.029 428.971 129 424 129 419.029 129 415 133.029 415 138L415 139C415 139.552 415.448 140 416 140 416.552 140 417 139.552 417 139L417 138C417 134.134 420.134 131 424 131 427.866 131 431 134.134 431 138 431 141.866 427.866 145 424 145L396 145C395.448 145 395 145.448 395 146Z" stroke="#FFFFFF" stroke-width="3" fill="#FFFFFF"/><path d="M454 133C446.816 133.004 440.996 138.832 441 146.016 441.001 147.486 441.251 148.946 441.74 150.333 441.909 150.859 442.473 151.148 442.998 150.979 443.524 150.81 443.813 150.246 443.644 149.721 443.638 149.702 443.632 149.685 443.625 149.667 441.6 143.939 444.601 137.654 450.329 135.629 456.056 133.604 462.341 136.605 464.367 142.333 466.392 148.061 463.39 154.346 457.663 156.371 456.486 156.787 455.248 156.999 454 157L388 157C387.448 157 387 157.448 387 158 387 158.552 387.448 159 388 159L454 159C461.18 159 467 153.18 467 146 467 138.82 461.18 133 454 133Z" stroke="#FFFFFF" stroke-width="3" fill="#FFFFFF"/><path d="M435 169 400 169C399.448 169 399 169.448 399 170 399 170.552 399.448 171 400 171L435 171C437.761 171.001 439.999 173.241 439.998 176.002 439.997 178.763 437.757 181.001 434.996 181 432.878 180.999 430.99 179.664 430.284 177.667 430.1 177.146 429.529 176.873 429.008 177.057 428.487 177.241 428.214 177.812 428.398 178.333 429.686 181.978 433.686 183.888 437.331 182.6 440.976 181.311 442.886 177.312 441.598 173.667 440.609 170.871 437.966 169.001 435 169Z" stroke="#FFFFFF" stroke-width="3" fill="#FFFFFF"/></g></svg>