<svg width="96" height="96" xmlns="http://www.w3.org/2000/svg" xmlns:xlink="http://www.w3.org/1999/xlink" overflow="hidden"><defs><clipPath id="clip0"><rect x="415" y="107" width="96" height="96"/></clipPath></defs><g clip-path="url(#clip0)" transform="translate(-415 -107)"><path d="M451.168 169.048C451.052 168.547 450.764 168.102 450.354 167.791 449.472 167.13 448.472 166.642 447.408 166.354 445.783 165.883 444.059 165.883 442.434 166.354 441.368 166.642 440.366 167.13 439.483 167.793 439.072 168.103 438.783 168.549 438.667 169.051 438.659 169.085 438.652 169.12 438.647 169.151L437.01 180.861C436.933 181.408 437.314 181.913 437.861 181.99 437.907 181.997 437.953 182 438 182 438.498 181.999 438.92 181.632 438.989 181.139L440.618 169.494C440.627 169.454 440.65 169.419 440.682 169.394 441.362 168.884 442.133 168.508 442.954 168.286 444.237 167.907 445.603 167.907 446.886 168.286 447.705 168.507 448.474 168.883 449.152 169.392 449.184 169.417 449.207 169.452 449.216 169.492L450.845 181.136C450.914 181.629 451.335 181.996 451.833 181.997 451.88 181.997 451.927 181.994 451.974 181.987 452.521 181.91 452.902 181.405 452.825 180.858L451.189 169.152C451.184 169.117 451.177 169.082 451.168 169.048Z" stroke="#FFFFFF" fill="#FFFFFF"/><path d="M444.912 165C447.121 165 448.912 163.209 448.912 161 448.912 158.791 447.121 157 444.912 157 442.703 157 440.912 158.791 440.912 161 440.912 163.209 442.703 165 444.912 165ZM444.912 159C446.017 159 446.912 159.895 446.912 161 446.912 162.105 446.017 163 444.912 163 443.807 163 442.912 162.105 442.912 161 442.912 159.895 443.807 159 444.912 159Z" stroke="#FFFFFF" fill="#FFFFFF"/><path d="M433.257 169.049C433.141 168.547 432.852 168.101 432.441 167.791 431.561 167.13 430.563 166.642 429.5 166.354 428.688 166.126 427.849 166.007 427.006 166 426.166 166.007 425.33 166.125 424.521 166.352 423.455 166.64 422.454 167.129 421.571 167.791 421.16 168.101 420.871 168.547 420.755 169.049 420.747 169.083 420.74 169.118 420.735 169.149L419.1 180.861C419.023 181.408 419.404 181.913 419.951 181.99 419.997 181.997 420.044 182 420.091 182 420.589 181.999 421.011 181.632 421.08 181.139L422.707 169.494C422.716 169.454 422.738 169.419 422.771 169.394 423.451 168.884 424.222 168.508 425.042 168.286 425.681 168.104 426.342 168.008 427.006 168 427.672 168.007 428.334 168.103 428.975 168.285 429.794 168.506 430.563 168.882 431.241 169.391 431.273 169.416 431.296 169.451 431.305 169.491L432.934 181.136C433.003 181.629 433.425 181.996 433.923 181.997 433.97 181.997 434.017 181.994 434.063 181.987 434.61 181.911 434.991 181.405 434.915 180.858 434.915 180.858 434.915 180.858 434.915 180.858L433.277 169.152C433.272 169.117 433.266 169.083 433.257 169.049Z" stroke="#FFFFFF" fill="#FFFFFF"/><path d="M427 165C429.209 165 431 163.209 431 161 431 158.791 429.209 157 427 157 424.791 157 423 158.791 423 161 423 163.209 424.791 165 427 165ZM427 159C428.105 159 429 159.895 429 161 429 162.105 428.105 163 427 163 425.895 163 425 162.105 425 161 425 159.895 425.895 159 427 159Z" stroke="#FFFFFF" fill="#FFFFFF"/><path d="M447.912 172C447.912 171.448 447.464 171 446.912 171 446.36 171 445.912 171.448 445.912 172L445.912 181 443.912 181 443.912 172C443.912 171.448 443.464 171 442.912 171 442.36 171 441.912 171.448 441.912 172L441.912 196.957 443.912 196.957 443.912 183 445.912 183 445.912 196.957 447.912 196.957 447.912 175 447.912 175Z" stroke="#FFFFFF" fill="#FFFFFF"/><path d="M430 172C430 171.448 429.552 171 429 171L429 171C428.448 171 428 171.448 428 172L428 176.59 431.072 185 422.93 185 426 176.589 426 176.413 426 176.413 426 172C426 171.448 425.552 171 425 171L425 171C424.448 171 424 171.448 424 172L424 176.237 420.071 187 424 187 424 197 426 197 426 187 428 187 428 197 430 197 430 187 433.93 187 430 176.235Z" stroke="#FFFFFF" fill="#FFFFFF"/><path d="M487.168 169.048C487.052 168.547 486.764 168.102 486.354 167.791 485.472 167.13 484.472 166.642 483.408 166.354 481.783 165.883 480.059 165.883 478.434 166.354 477.368 166.642 476.366 167.13 475.483 167.793 475.072 168.103 474.783 168.549 474.667 169.051 474.659 169.085 474.652 169.12 474.647 169.151L473.01 180.861C472.933 181.408 473.314 181.913 473.861 181.99 473.907 181.997 473.953 182 474 182 474.498 181.999 474.92 181.632 474.989 181.139L476.618 169.494C476.627 169.454 476.65 169.419 476.682 169.394 477.362 168.884 478.133 168.508 478.954 168.286 480.237 167.907 481.603 167.907 482.886 168.286 483.705 168.507 484.474 168.883 485.152 169.392 485.184 169.417 485.207 169.452 485.216 169.492L486.845 181.136C486.914 181.629 487.335 181.996 487.833 181.997 487.88 181.997 487.927 181.994 487.974 181.987 488.521 181.91 488.902 181.405 488.825 180.858L487.189 169.152C487.184 169.117 487.177 169.082 487.168 169.048Z" stroke="#FFFFFF" fill="#FFFFFF"/><path d="M480.912 165C483.121 165 484.912 163.209 484.912 161 484.912 158.791 483.121 157 480.912 157 478.703 157 476.912 158.791 476.912 161 476.912 163.209 478.703 165 480.912 165ZM480.912 159C482.017 159 482.912 159.895 482.912 161 482.912 162.105 482.017 163 480.912 163 479.807 163 478.912 162.105 478.912 161 478.912 159.895 479.807 159 480.912 159Z" stroke="#FFFFFF" fill="#FFFFFF"/><path d="M469.257 169.049C469.141 168.547 468.852 168.101 468.441 167.791 467.561 167.13 466.563 166.642 465.5 166.354 463.875 165.883 462.15 165.883 460.525 166.354 459.459 166.642 458.458 167.13 457.575 167.793 457.164 168.103 456.875 168.549 456.759 169.051 456.751 169.085 456.744 169.12 456.739 169.151L455.1 180.861C455.023 181.408 455.404 181.913 455.951 181.99 455.997 181.997 456.044 182 456.091 182 456.589 181.999 457.011 181.632 457.08 181.139L458.709 169.494C458.718 169.454 458.741 169.419 458.773 169.394 459.453 168.884 460.224 168.508 461.044 168.286 462.328 167.907 463.693 167.907 464.977 168.286 465.796 168.507 466.565 168.883 467.243 169.392 467.276 169.417 467.298 169.452 467.307 169.492L468.936 181.137C469.005 181.63 469.427 181.997 469.925 181.998 469.972 181.998 470.019 181.995 470.065 181.988 470.612 181.912 470.993 181.406 470.917 180.859 470.917 180.859 470.917 180.859 470.917 180.859L469.277 169.152C469.272 169.117 469.266 169.083 469.257 169.049Z" stroke="#FFFFFF" fill="#FFFFFF"/><path d="M463 157C460.791 157 459 158.791 459 161 459 163.209 460.791 165 463 165 465.209 165 467 163.209 467 161 467 158.791 465.209 157 463 157ZM463 163C461.895 163 461 162.105 461 161 461 159.895 461.895 159 463 159 464.105 159 465 159.895 465 161 465 162.105 464.105 163 463 163Z" stroke="#FFFFFF" fill="#FFFFFF"/><path d="M483.912 172C483.912 171.448 483.464 171 482.912 171 482.36 171 481.912 171.448 481.912 172L481.912 181 479.912 181 479.912 172C479.912 171.448 479.464 171 478.912 171 478.36 171 477.912 171.448 477.912 172L477.912 196.957 479.912 196.957 479.912 183 481.912 183 481.912 196.957 483.912 196.957 483.912 175 483.912 175Z" stroke="#FFFFFF" fill="#FFFFFF"/><path d="M466 172C466 171.448 465.552 171 465 171L465 171C464.448 171 464 171.448 464 172L464 176.59 467.072 185 458.93 185 462 176.589 462 176.413 462 176.413 462 172C462 171.448 461.552 171 461 171L461 171C460.448 171 460 171.448 460 172L460 176.237 456.071 187 460 187 460 197 462 197 462 187 464 187 464 197 466 197 466 187 469.93 187 466 176.235Z" stroke="#FFFFFF" fill="#FFFFFF"/><path d="M451.168 125.048C451.052 124.547 450.764 124.102 450.354 123.791 449.472 123.13 448.472 122.642 447.408 122.354 445.783 121.883 444.059 121.883 442.434 122.354 441.368 122.642 440.366 123.13 439.483 123.793 439.072 124.103 438.783 124.549 438.667 125.051 438.659 125.085 438.652 125.12 438.647 125.151L437.01 136.861C436.933 137.408 437.314 137.913 437.861 137.99 437.907 137.997 437.953 138 438 138 438.498 137.999 438.92 137.632 438.989 137.139L440.618 125.494C440.627 125.454 440.65 125.419 440.682 125.394 441.362 124.884 442.133 124.508 442.954 124.286 444.237 123.907 445.603 123.907 446.886 124.286 447.705 124.507 448.474 124.883 449.152 125.392 449.184 125.417 449.207 125.452 449.216 125.492L450.845 137.136C450.914 137.629 451.335 137.996 451.833 137.997 451.88 137.997 451.927 137.994 451.974 137.987 452.521 137.91 452.902 137.405 452.825 136.858L451.189 125.152C451.184 125.117 451.177 125.082 451.168 125.048Z" stroke="#FFFFFF" fill="#FFFFFF"/><path d="M444.912 121C447.121 121 448.912 119.209 448.912 117 448.912 114.791 447.121 113 444.912 113 442.703 113 440.912 114.791 440.912 117 440.912 119.209 442.703 121 444.912 121ZM444.912 115C446.017 115 446.912 115.895 446.912 117 446.912 118.105 446.017 119 444.912 119 443.807 119 442.912 118.105 442.912 117 442.912 115.895 443.807 115 444.912 115Z" stroke="#FFFFFF" fill="#FFFFFF"/><path d="M443.912 131 443.912 128C443.912 127.448 443.464 127 442.912 127 442.36 127 441.912 127.448 441.912 128L441.912 152.957 443.912 152.957 443.912 139 445.912 139 445.912 152.957 447.912 152.957 447.912 131 447.912 131 447.912 128C447.912 127.448 447.464 127 446.912 127 446.36 127 445.912 127.448 445.912 128L445.912 137 443.912 137 443.912 131Z" stroke="#FFFFFF" fill="#FFFFFF"/><path d="M487.168 125.048C487.052 124.547 486.764 124.102 486.354 123.791 485.472 123.13 484.472 122.642 483.408 122.354 481.783 121.883 480.059 121.883 478.434 122.354 477.368 122.642 476.366 123.13 475.483 123.793 475.072 124.103 474.783 124.549 474.667 125.051 474.659 125.085 474.652 125.12 474.647 125.151L473.01 136.861C472.933 137.408 473.314 137.913 473.861 137.99 473.907 137.997 473.953 138 474 138 474.498 137.999 474.92 137.632 474.989 137.139L476.618 125.494C476.627 125.454 476.65 125.419 476.682 125.394 477.362 124.884 478.133 124.508 478.954 124.286 480.237 123.907 481.603 123.907 482.886 124.286 483.705 124.507 484.474 124.883 485.152 125.392 485.184 125.417 485.207 125.452 485.216 125.492L486.845 137.136C486.914 137.629 487.335 137.996 487.833 137.997 487.88 137.997 487.927 137.994 487.974 137.987 488.521 137.91 488.902 137.405 488.825 136.858L487.189 125.152C487.184 125.117 487.177 125.082 487.168 125.048Z" stroke="#FFFFFF" fill="#FFFFFF"/><path d="M480.912 121C483.121 121 484.912 119.209 484.912 117 484.912 114.791 483.121 113 480.912 113 478.703 113 476.912 114.791 476.912 117 476.912 119.209 478.703 121 480.912 121ZM480.912 115C482.017 115 482.912 115.895 482.912 117 482.912 118.105 482.017 119 480.912 119 479.807 119 478.912 118.105 478.912 117 478.912 115.895 479.807 115 480.912 115Z" stroke="#FFFFFF" fill="#FFFFFF"/><path d="M469.257 125.049C469.141 124.547 468.852 124.101 468.441 123.791 467.561 123.13 466.563 122.642 465.5 122.354 463.875 121.883 462.15 121.883 460.525 122.354 459.459 122.642 458.458 123.131 457.575 123.793 457.164 124.103 456.875 124.549 456.759 125.051 456.751 125.085 456.744 125.12 456.739 125.151L455.1 136.861C455.023 137.408 455.404 137.913 455.951 137.99 455.997 137.997 456.044 138 456.091 138 456.589 137.999 457.011 137.632 457.08 137.139L458.709 125.494C458.718 125.454 458.741 125.419 458.773 125.394 459.453 124.884 460.224 124.508 461.044 124.286 462.328 123.907 463.693 123.907 464.977 124.286 465.796 124.507 466.565 124.883 467.243 125.392 467.276 125.417 467.298 125.452 467.307 125.492L468.936 137.137C469.005 137.63 469.427 137.997 469.925 137.998 469.972 137.998 470.019 137.995 470.065 137.988 470.612 137.912 470.993 137.406 470.917 136.859 470.917 136.859 470.917 136.859 470.917 136.859L469.277 125.152C469.272 125.117 469.266 125.083 469.257 125.049Z" stroke="#FFFFFF" fill="#FFFFFF"/><path d="M463 121C465.209 121 467 119.209 467 117 467 114.791 465.209 113 463 113 460.791 113 459 114.791 459 117 459 119.209 460.791 121 463 121ZM463 115C464.105 115 465 115.895 465 117 465 118.105 464.105 119 463 119 461.895 119 461 118.105 461 117 461 115.895 461.895 115 463 115Z" stroke="#FFFFFF" fill="#FFFFFF"/><path d="M479.912 131 479.912 128C479.912 127.448 479.464 127 478.912 127 478.36 127 477.912 127.448 477.912 128L477.912 152.957 479.912 152.957 479.912 139 481.912 139 481.912 152.957 483.912 152.957 483.912 131 483.912 131 483.912 128C483.912 127.448 483.464 127 482.912 127 482.36 127 481.912 127.448 481.912 128L481.912 137 479.912 137 479.912 131Z" stroke="#FFFFFF" fill="#FFFFFF"/><path d="M457.445 143 460 143 460 153 462 153 462 143 464 143 464 153 466 153 466 143 469.93 143 466 132.235 466 128C466 127.448 465.552 127 465 127L465 127C464.448 127 464 127.448 464 128L464 132.59 467.072 141 458.93 141 462 132.589 462 132.413 462 132.413 462 128C462 127.448 461.552 127 461 127L461 127C460.448 127 460 127.448 460 128L460 132.237 456.071 143Z" stroke="#FFFFFF" fill="#FFFFFF"/><path d="M505.257 169.049C505.141 168.547 504.852 168.101 504.441 167.791 503.561 167.13 502.563 166.642 501.5 166.354 499.875 165.883 498.15 165.883 496.525 166.354 495.459 166.642 494.458 167.13 493.575 167.793 493.164 168.103 492.875 168.549 492.759 169.051 492.751 169.085 492.744 169.12 492.739 169.151L491.1 180.861C491.023 181.408 491.404 181.913 491.951 181.99 491.997 181.997 492.044 182 492.091 182 492.589 181.999 493.011 181.632 493.08 181.139L494.709 169.494C494.718 169.454 494.741 169.419 494.773 169.394 495.453 168.884 496.224 168.508 497.044 168.286 498.328 167.907 499.693 167.907 500.977 168.286 501.796 168.507 502.565 168.883 503.243 169.392 503.276 169.417 503.298 169.452 503.307 169.492L504.936 181.137C505.005 181.63 505.427 181.997 505.925 181.998 505.972 181.998 506.019 181.995 506.065 181.988 506.612 181.912 506.993 181.406 506.917 180.859 506.917 180.859 506.917 180.859 506.917 180.859L505.277 169.152C505.272 169.117 505.266 169.083 505.257 169.049Z" stroke="#FFFFFF" fill="#FFFFFF"/><path d="M499 165C501.209 165 503 163.209 503 161 503 158.791 501.209 157 499 157 496.791 157 495 158.791 495 161 495 163.209 496.791 165 499 165ZM499 159C500.105 159 501 159.895 501 161 501 162.105 500.105 163 499 163 497.895 163 497 162.105 497 161 497 159.895 497.895 159 499 159Z" stroke="#FFFFFF" fill="#FFFFFF"/><path d="M502 172C502 171.448 501.552 171 501 171L501 171C500.448 171 500 171.448 500 172L500 176.59 503.072 185 494.93 185 498 176.589 498 176.413 498 176.413 498 172C498 171.448 497.552 171 497 171L497 171C496.448 171 496 171.448 496 172L496 176.237 492.071 187 496 187 496 197 498 197 498 187 500 187 500 197 502 197 502 187 505.93 187 502 176.235Z" stroke="#FFFFFF" fill="#FFFFFF"/></g></svg>