<svg width="96" height="96" xmlns="http://www.w3.org/2000/svg" xmlns:xlink="http://www.w3.org/1999/xlink" overflow="hidden"><defs><clipPath id="clip0"><rect x="319" y="96" width="96" height="96"/></clipPath></defs><g clip-path="url(#clip0)" transform="translate(-319 -96)"><path d="M396 145C400.978 145.007 405.019 140.978 405.026 136 405.033 131.022 401.004 126.981 396.026 126.974 391.048 126.967 387.007 130.996 387 135.974 386.999 136.864 387.129 137.749 387.387 138.6L377.187 142.946C375.235 139.021 371.37 136.405 367 136.051L367 124.941C371.94 124.389 375.497 119.937 374.944 114.997 374.392 110.057 369.94 106.5 365 107.052 360.06 107.605 356.503 112.057 357.056 116.997 357.523 121.175 360.821 124.474 365 124.941L365 136.051C360.632 136.406 356.77 139.022 354.818 142.946L344.613 138.6C346.072 133.825 343.383 128.771 338.608 127.312 333.832 125.854 328.778 128.542 327.32 133.318 325.861 138.093 328.55 143.147 333.325 144.605 337.368 145.84 341.728 144.109 343.821 140.436L354.06 144.8C352.828 148.768 353.653 153.09 356.26 156.325L348.035 164.55C343.882 161.702 338.207 162.76 335.359 166.913 332.511 171.066 333.569 176.742 337.722 179.59 341.875 182.438 347.55 181.38 350.398 177.226 352.812 173.707 352.461 168.984 349.554 165.859L357.64 157.773C362.378 162.08 369.614 162.08 374.352 157.773L382.438 165.859C379.1 169.467 379.318 175.098 382.926 178.436 386.534 181.774 392.165 181.556 395.503 177.948 398.841 174.34 398.623 168.71 395.015 165.371 391.971 162.554 387.384 162.214 383.957 164.55L375.732 156.325C378.342 153.091 379.17 148.77 377.94 144.8L388.179 140.439C389.776 143.255 392.762 144.997 396 145ZM332.025 141.755C332.146 139.56 334.023 137.878 336.219 137.999 338.245 138.11 339.864 139.728 339.975 141.755 337.585 143.415 334.415 143.415 332.025 141.755ZM334.5 134.5C334.5 133.672 335.172 133 336 133 336.828 133 337.5 133.672 337.5 134.5 337.5 135.328 336.828 136 336 136 335.172 136 334.5 135.328 334.5 134.5ZM341.678 140.078C341.174 138.601 340.118 137.377 338.73 136.663 339.225 136.05 339.496 135.288 339.5 134.5 339.5 132.567 337.933 131 336 131 334.067 131 332.5 132.567 332.5 134.5 332.504 135.288 332.775 136.05 333.27 136.663 331.882 137.377 330.826 138.601 330.322 140.078 328.061 136.942 328.77 132.567 331.906 130.306 335.042 128.045 339.417 128.754 341.678 131.89 343.441 134.335 343.441 137.633 341.678 140.078ZM364.5 114.5C364.5 113.672 365.172 113 366 113 366.828 113 367.5 113.672 367.5 114.5 367.5 115.328 366.828 116 366 116 365.172 116 364.5 115.328 364.5 114.5ZM366 118C368.109 118.006 369.849 119.65 369.975 121.755 367.585 123.415 364.415 123.415 362.025 121.755 362.151 119.65 363.891 118.006 366 118ZM359 116C358.991 112.134 362.118 108.993 365.984 108.984 369.85 108.975 372.991 112.102 373 115.968 373.003 117.443 372.541 118.882 371.678 120.078 371.174 118.601 370.118 117.377 368.73 116.663 369.225 116.05 369.496 115.287 369.5 114.5 369.5 112.567 367.933 111 366 111 364.067 111 362.5 112.567 362.5 114.5 362.504 115.287 362.775 116.05 363.27 116.663 361.882 117.377 360.826 118.601 360.322 120.078 359.463 118.892 359 117.465 359 116ZM339.025 177.755C339.146 175.56 341.023 173.878 343.219 173.999 345.245 174.11 346.864 175.728 346.975 177.755 344.585 179.415 341.415 179.415 339.025 177.755ZM341.5 170.5C341.5 169.672 342.172 169 343 169 343.828 169 344.5 169.672 344.5 170.5 344.5 171.328 343.828 172 343 172 342.172 172 341.5 171.328 341.5 170.5ZM348.678 176.078C348.174 174.601 347.118 173.377 345.73 172.663 346.225 172.05 346.496 171.288 346.5 170.5 346.5 168.567 344.933 167 343 167 341.067 167 339.5 168.567 339.5 170.5 339.504 171.288 339.775 172.05 340.27 172.663 338.882 173.377 337.826 174.601 337.322 176.078 335.061 172.942 335.77 168.567 338.906 166.306 342.042 164.045 346.417 164.754 348.678 167.89 350.441 170.335 350.441 173.633 348.678 176.078ZM359.953 157.069C360.269 153.729 363.232 151.278 366.572 151.594 369.474 151.869 371.772 154.167 372.047 157.069 368.427 159.644 363.573 159.644 359.953 157.069ZM363.219 146.781C363.22 145.245 364.465 144 366.001 144.001 367.537 144.002 368.782 145.247 368.781 146.783 368.78 148.318 367.535 149.563 366 149.563 364.464 149.561 363.22 148.317 363.219 146.781ZM385.025 177.755C385.146 175.56 387.023 173.878 389.219 173.999 391.245 174.11 392.864 175.728 392.975 177.755 390.585 179.415 387.415 179.415 385.025 177.755ZM387.5 170.5C387.5 169.672 388.172 169 389 169 389.828 169 390.5 169.672 390.5 170.5 390.5 171.328 389.828 172 389 172 388.172 172 387.5 171.328 387.5 170.5ZM396 172C396 173.465 395.537 174.892 394.678 176.078 394.174 174.601 393.118 173.377 391.73 172.663 392.225 172.05 392.496 171.288 392.5 170.5 392.5 168.567 390.933 167 389 167 387.067 167 385.5 168.567 385.5 170.5 385.504 171.288 385.775 172.05 386.27 172.663 384.882 173.377 383.826 174.601 383.322 176.078 381.061 172.942 381.77 168.567 384.906 166.306 388.042 164.045 392.417 164.754 394.678 167.89 395.541 169.087 396.003 170.525 396 172ZM373.785 155.521C373.143 153.177 371.483 151.244 369.262 150.257 371.192 148.455 371.297 145.43 369.495 143.5 367.694 141.569 364.668 141.465 362.738 143.266 360.808 145.068 360.703 148.093 362.505 150.024 362.58 150.104 362.658 150.182 362.738 150.257 360.517 151.244 358.857 153.177 358.215 155.521 354.324 151.221 354.655 144.581 358.954 140.69 363.254 136.799 369.894 137.13 373.785 141.429 377.405 145.429 377.405 151.521 373.785 155.521ZM392.025 141.755C392.146 139.56 394.023 137.878 396.219 137.999 398.245 138.11 399.864 139.728 399.975 141.755 397.585 143.415 394.415 143.415 392.025 141.755ZM394.5 134.5C394.5 133.672 395.172 133 396 133 396.828 133 397.5 133.672 397.5 134.5 397.5 135.328 396.828 136 396 136 395.172 136 394.5 135.328 394.5 134.5ZM396 129C399.859 128.993 402.993 132.117 403 135.976 403.003 137.449 402.54 138.884 401.678 140.078 401.174 138.601 400.118 137.377 398.73 136.663 399.225 136.05 399.496 135.288 399.5 134.5 399.5 132.567 397.933 131 396 131 394.067 131 392.5 132.567 392.5 134.5 392.504 135.288 392.775 136.05 393.27 136.663 391.882 137.377 390.826 138.601 390.322 140.078 388.063 136.949 388.769 132.581 391.898 130.322 393.092 129.46 394.527 128.997 396 129Z" stroke="#FFFFFF" fill="#FFFFFF"/></g></svg>