<svg width="96" height="96" xmlns="http://www.w3.org/2000/svg" xmlns:xlink="http://www.w3.org/1999/xlink" overflow="hidden"><defs><clipPath id="clip0"><rect x="299" y="163" width="96" height="96"/></clipPath></defs><g clip-path="url(#clip0)" transform="translate(-299 -163)"><path d="M382.29 174.436C379.117 169.731 372.731 168.489 368.026 171.662 366.931 172.4 365.989 173.342 365.251 174.436 363.334 177.265 362.929 180.855 364.168 184.039L368.846 194.381 372.884 202.851C373.135 203.34 373.735 203.534 374.225 203.283 374.41 203.188 374.562 203.036 374.657 202.851L378.695 194.381 383.373 184.039C384.612 180.855 384.207 177.265 382.29 174.436ZM381.526 183.27 376.89 193.52 373.78 200.044C373.775 200.054 373.767 200.054 373.762 200.044L370.668 193.557 366.015 183.27C365.034 180.706 365.368 177.824 366.911 175.552 369.467 171.764 374.611 170.765 378.4 173.322 379.284 173.918 380.044 174.68 380.639 175.566 382.175 177.835 382.506 180.711 381.526 183.27Z" stroke="#FFFFFF" fill="#FFFFFF"/><path d="M312.216 212.006C309.84 215.51 309.339 219.957 310.873 223.903L316.669 236.715 321.672 247.208C321.983 247.815 322.727 248.055 323.333 247.744 323.563 247.626 323.75 247.439 323.868 247.208L328.871 236.715 334.667 223.903C336.202 219.957 335.7 215.51 333.325 212.006 329.395 206.176 321.483 204.637 315.654 208.568 314.297 209.482 313.13 210.65 312.216 212.006ZM331.674 213.135C333.668 216.08 334.096 219.814 332.82 223.133L327.066 235.854 322.779 244.845C322.774 244.855 322.766 244.855 322.761 244.845L318.491 235.89 312.72 223.133C311.443 219.808 311.875 216.069 313.875 213.122 317.189 208.209 323.858 206.913 328.771 210.228 329.917 211.001 330.903 211.988 331.674 213.135Z" stroke="#FFFFFF" fill="#FFFFFF"/><path d="M342.863 245.888C343.853 245.877 344.86 245.86 345.878 245.836L345.83 243.836C344.821 243.86 343.822 243.877 342.839 243.888Z" stroke="#FFFFFF" fill="#FFFFFF"/><path d="M350.821 207.313 349.924 205.525C348.967 205.996 348.059 206.558 347.21 207.204L348.436 208.785C349.181 208.219 349.98 207.726 350.821 207.313Z" stroke="#FFFFFF" fill="#FFFFFF"/><path d="M346.625 210.701 344.936 209.63C344.303 210.611 343.932 211.739 343.859 212.905L345.855 213.025C345.906 212.197 346.171 211.396 346.625 210.701Z" stroke="#FFFFFF" fill="#FFFFFF"/><path d="M339.846 243.909 338.832 243.91 336.851 243.906 336.843 245.906 338.832 245.91 339.85 245.909 339.846 243.909Z" stroke="#FFFFFF" fill="#FFFFFF"/><path d="M358.65 221.409C357.67 221.163 356.7 220.918 355.757 220.662L355.234 222.593C356.19 222.851 357.171 223.1 358.163 223.349Z" stroke="#FFFFFF" fill="#FFFFFF"/><path d="M330.847 243.88 330.847 245.88C331.763 245.88 332.767 245.885 333.841 245.891L333.853 243.891C332.774 243.885 331.767 243.88 330.847 243.88Z" stroke="#FFFFFF" fill="#FFFFFF"/><path d="M346.628 218.926 347.881 217.367C347.209 216.854 346.666 216.193 346.293 215.434L344.482 216.286C344.987 217.318 345.721 218.221 346.628 218.926Z" stroke="#FFFFFF" fill="#FFFFFF"/><path d="M358.725 202.674 359.132 204.632C360.064 204.439 361.043 204.261 362.043 204.103L361.731 202.127C360.7 202.29 359.689 202.474 358.725 202.674Z" stroke="#FFFFFF" fill="#FFFFFF"/><path d="M364.757 201.717 364.982 203.705C366.715 203.508 367.852 203.445 367.9 203.443L367.792 201.445C367.667 201.452 366.517 201.517 364.757 201.717Z" stroke="#FFFFFF" fill="#FFFFFF"/><path d="M376.694 235.092C376.698 234.218 376.601 233.348 376.406 232.496L374.459 232.952C374.619 233.653 374.698 234.37 374.694 235.089 374.694 235.251 374.685 235.412 374.668 235.573L376.655 235.794C376.681 235.561 376.694 235.326 376.694 235.092Z" stroke="#FFFFFF" fill="#FFFFFF"/><path d="M366.444 241.588 366.967 243.518C367.968 243.251 368.955 242.932 369.922 242.561L369.198 240.696C368.296 241.042 367.377 241.339 366.444 241.588Z" stroke="#FFFFFF" fill="#FFFFFF"/><path d="M371.731 239.469 372.78 241.172C373.74 240.603 374.593 239.872 375.303 239.011L373.738 237.766C373.172 238.445 372.493 239.021 371.731 239.469Z" stroke="#FFFFFF" fill="#FFFFFF"/><path d="M367.417 223.962 366.699 225.829C367.597 226.168 368.472 226.563 369.32 227.012L370.264 225.249C369.343 224.761 368.392 224.331 367.417 223.962Z" stroke="#FFFFFF" fill="#FFFFFF"/><path d="M372.926 227.014 371.646 228.551C372.34 229.119 372.944 229.789 373.437 230.537L375.117 229.452C374.514 228.534 373.776 227.712 372.926 227.014Z" stroke="#FFFFFF" fill="#FFFFFF"/><path d="M360.676 242.745 360.966 244.724C362.019 244.569 363.031 244.397 363.975 244.211L363.588 242.248C362.676 242.428 361.696 242.595 360.676 242.745Z" stroke="#FFFFFF" fill="#FFFFFF"/><path d="M349.394 220.595C350.34 221.028 351.31 221.405 352.3 221.725L352.927 219.826C352.011 219.531 351.113 219.182 350.237 218.782Z" stroke="#FFFFFF" fill="#FFFFFF"/><path d="M351.914 245.597 351.798 243.6C350.806 243.657 349.81 243.704 348.817 243.743L348.896 245.741C349.9 245.702 350.909 245.655 351.914 245.597Z" stroke="#FFFFFF" fill="#FFFFFF"/><path d="M352.798 204.305 353.476 206.187C354.336 205.877 355.275 205.583 356.267 205.314L355.743 203.384C354.699 203.667 353.708 203.977 352.798 204.305Z" stroke="#FFFFFF" fill="#FFFFFF"/><path d="M354.933 245.391C355.951 245.309 356.96 245.215 357.951 245.107L357.734 243.118C356.761 243.225 355.771 243.317 354.772 243.397Z" stroke="#FFFFFF" fill="#FFFFFF"/><path d="M361.573 222.152 361.066 224.087C362.029 224.339 362.987 224.602 363.924 224.887L364.504 222.973C363.544 222.681 362.56 222.411 361.573 222.152Z" stroke="#FFFFFF" fill="#FFFFFF"/><path d="M373.77 175.815C371.322 175.815 369.338 177.8 369.338 180.247 369.338 182.695 371.323 184.679 373.77 184.679 376.218 184.679 378.202 182.695 378.202 180.247 378.212 177.81 376.245 175.826 373.807 175.815 373.795 175.815 373.782 175.815 373.77 175.815ZM373.77 182.679C372.427 182.679 371.338 181.59 371.338 180.247 371.338 178.904 372.427 177.815 373.77 177.815 375.113 177.815 376.202 178.904 376.202 180.247 376.216 181.576 375.151 182.665 373.822 182.679 373.805 182.68 373.787 182.68 373.77 182.679Z" stroke="#FFFFFF" fill="#FFFFFF"/><path d="M317.279 219.205C317.279 222.237 319.738 224.696 322.77 224.696 325.803 224.696 328.261 222.238 328.261 219.205 328.262 216.173 325.803 213.714 322.771 213.714 322.77 213.714 322.77 213.714 322.77 213.714 319.75 213.702 317.292 216.139 317.279 219.159 317.279 219.174 317.279 219.19 317.279 219.205ZM326.261 219.205C326.261 221.133 324.698 222.696 322.771 222.696 320.842 222.696 319.279 221.133 319.279 219.205 319.279 217.277 320.842 215.714 322.77 215.714 322.77 215.714 322.77 215.714 322.77 215.714 324.678 215.693 326.241 217.223 326.261 219.13 326.262 219.155 326.262 219.18 326.261 219.205Z" stroke="#FFFFFF" fill="#FFFFFF"/></g></svg>