<svg width="96" height="96" xmlns="http://www.w3.org/2000/svg" xmlns:xlink="http://www.w3.org/1999/xlink" overflow="hidden"><defs><clipPath id="clip0"><rect x="367" y="54" width="96" height="96"/></clipPath></defs><g clip-path="url(#clip0)" transform="translate(-367 -54)"><path d="M398.707 96.77 397.293 95.355 384.615 108.034C384.611 108.038 384.605 108.038 384.601 108.034 384.599 108.032 384.598 108.03 384.598 108.028 381.257 91.2364 392.16 74.9154 408.952 71.5741 422.961 68.7864 437.062 75.932 443.098 88.878L444.91 88.031C437.23 71.507 417.609 64.3374 401.085 72.0172 387.824 78.1804 380.203 92.3369 382.358 106.8 382.36 106.805 382.357 106.81 382.353 106.812 382.349 106.813 382.344 106.812 382.342 106.808L370.891 95.355 369.477 96.77 384.092 111.385Z" stroke="#FFFFFF" stroke-width="2" fill="#FFFFFF"/><path d="M431.293 109.264 432.707 110.678 445.667 97.718C445.671 97.7141 445.677 97.7141 445.681 97.718 445.683 97.7196 445.684 97.7217 445.684 97.724 448.118 114.598 436.412 130.25 419.539 132.684 418.035 132.901 416.519 133.007 415 133 403.523 133.011 392.982 126.673 387.609 116.531L385.843 117.469C394.379 133.572 414.352 139.706 430.455 131.171 441.254 125.446 448.005 114.222 448 102 448 101.163 447.961 100.325 447.9 99.49 447.9 99.4845 447.905 99.48 447.91 99.48 447.912 99.48 447.914 99.4807 447.916 99.482L459.111 110.682 460.525 109.268 445.908 94.648Z" stroke="#FFFFFF" stroke-width="2" fill="#FFFFFF"/></g></svg>